<svg xmlns="http://www.w3.org/2000/svg" width="115" height="115" viewBox="0 0 115 115">
  <g id="Group_25" data-name="Group 25" transform="translate(-1733.89 -836.89)">
    <circle id="Ellipse_3" data-name="Ellipse 3" cx="7" cy="7" r="7" transform="translate(1733.89 836.89)" fill="#00177d"/>
    <circle id="Ellipse_3-2" data-name="Ellipse 3" cx="7" cy="7" r="7" transform="translate(1758.89 836.89)" fill="#00177d"/>
    <ellipse id="Ellipse_3-3" data-name="Ellipse 3" cx="6.5" cy="7" rx="6.5" ry="7" transform="translate(1784.89 836.89)" fill="#00177d"/>
    <circle id="Ellipse_3-4" data-name="Ellipse 3" cx="7" cy="7" r="7" transform="translate(1809.89 836.89)" fill="#00177d"/>
    <circle id="Ellipse_3-5" data-name="Ellipse 3" cx="7" cy="7" r="7" transform="translate(1834.89 836.89)" fill="#00177d"/>
    <circle id="Ellipse_3-6" data-name="Ellipse 3" cx="7" cy="7" r="7" transform="translate(1733.89 861.89)" fill="#00177d"/>
    <circle id="Ellipse_3-7" data-name="Ellipse 3" cx="7" cy="7" r="7" transform="translate(1758.89 861.89)" fill="#00177d"/>
    <ellipse id="Ellipse_3-8" data-name="Ellipse 3" cx="6.5" cy="7" rx="6.5" ry="7" transform="translate(1784.89 861.89)" fill="#00177d"/>
    <circle id="Ellipse_3-9" data-name="Ellipse 3" cx="7" cy="7" r="7" transform="translate(1809.89 861.89)" fill="#00177d"/>
    <circle id="Ellipse_3-10" data-name="Ellipse 3" cx="7" cy="7" r="7" transform="translate(1834.89 861.89)" fill="#00177d"/>
    <ellipse id="Ellipse_3-11" data-name="Ellipse 3" cx="7" cy="6.5" rx="7" ry="6.5" transform="translate(1733.89 887.89)" fill="#00177d"/>
    <ellipse id="Ellipse_3-12" data-name="Ellipse 3" cx="7" cy="6.5" rx="7" ry="6.5" transform="translate(1758.89 887.89)" fill="#00177d"/>
    <circle id="Ellipse_3-13" data-name="Ellipse 3" cx="6.5" cy="6.5" r="6.5" transform="translate(1784.89 887.89)" fill="#00177d"/>
    <ellipse id="Ellipse_3-14" data-name="Ellipse 3" cx="7" cy="6.5" rx="7" ry="6.5" transform="translate(1809.89 887.89)" fill="#00177d"/>
    <ellipse id="Ellipse_3-15" data-name="Ellipse 3" cx="7" cy="6.5" rx="7" ry="6.5" transform="translate(1834.89 887.89)" fill="#00177d"/>
    <circle id="Ellipse_3-16" data-name="Ellipse 3" cx="7" cy="7" r="7" transform="translate(1733.89 912.89)" fill="#00177d"/>
    <circle id="Ellipse_3-17" data-name="Ellipse 3" cx="7" cy="7" r="7" transform="translate(1758.89 912.89)" fill="#00177d"/>
    <ellipse id="Ellipse_3-18" data-name="Ellipse 3" cx="6.5" cy="7" rx="6.5" ry="7" transform="translate(1784.89 912.89)" fill="#00177d"/>
    <circle id="Ellipse_3-19" data-name="Ellipse 3" cx="7" cy="7" r="7" transform="translate(1809.89 912.89)" fill="#00177d"/>
    <circle id="Ellipse_3-20" data-name="Ellipse 3" cx="7" cy="7" r="7" transform="translate(1834.89 912.89)" fill="#00177d"/>
    <circle id="Ellipse_3-21" data-name="Ellipse 3" cx="7" cy="7" r="7" transform="translate(1733.89 937.89)" fill="#00177d"/>
    <circle id="Ellipse_3-22" data-name="Ellipse 3" cx="7" cy="7" r="7" transform="translate(1758.89 937.89)" fill="#00177d"/>
    <ellipse id="Ellipse_3-23" data-name="Ellipse 3" cx="6.5" cy="7" rx="6.5" ry="7" transform="translate(1784.89 937.89)" fill="#00177d"/>
    <circle id="Ellipse_3-24" data-name="Ellipse 3" cx="7" cy="7" r="7" transform="translate(1809.89 937.89)" fill="#00177d"/>
    <circle id="Ellipse_3-25" data-name="Ellipse 3" cx="7" cy="7" r="7" transform="translate(1834.89 937.89)" fill="#00177d"/>
  </g>
</svg>
